<svg height="128" viewBox="0 0 128 128" width="128" xmlns="http://www.w3.org/2000/svg" xmlns:xlink="http://www.w3.org/1999/xlink"><linearGradient id="a" x1="50%" x2="50%" y1="0%" y2="100%"><stop offset="0" stop-color="#b198d2"/><stop offset="1" stop-color="#6d74cb"/></linearGradient><path d="m22.3431458 22.3431458c3.1241943-3.1241944 8.1895141-3.1241944 11.3137084 0l30.3431458 30.3438542 30.3431458-30.3438542c3.0577221-3.0577222 7.9748472-3.1227801 11.1116932-.1951738l.202015.1951738c3.124195 3.1241943 3.124195 8.1895141 0 11.3137084l-30.344854 30.3431458 30.344854 30.3431458c3.057722 3.0577221 3.12278 7.9748472.195174 11.1116932l-.195174.202015c-3.124194 3.124195-8.1895139 3.124195-11.3137082 0l-30.3431458-30.344854-30.3431458 30.344854c-3.0577221 3.057722-7.9748473 3.12278-11.111693.195174l-.2020154-.195174c-3.1241944-3.124194-3.1241944-8.1895139 0-11.3137082l30.3438542-30.3431458-30.3438542-30.3431458c-3.0577222-3.0577221-3.1227801-7.9748473-.1951738-11.111693z" fill="url(#a)"/></svg>