<svg width="1792" height="600" viewBox="0 0 1792 600" xmlns="http://www.w3.org/2000/svg" xmlns:xlink="http://www.w3.org/1999/xlink"><defs><filter x="-1.6%" y="-3%" width="103.1%" height="109.4%" filterUnits="objectBoundingBox" id="a"><feOffset dy="10" in="SourceAlpha" result="shadowOffsetOuter1"/><feGaussianBlur stdDeviation="7.5" in="shadowOffsetOuter1" result="shadowBlurOuter1"/><feColorMatrix values="0 0 0 0 0 0 0 0 0 0 0 0 0 0 0 0 0 0 0.04 0" in="shadowBlurOuter1"/></filter><filter x="-1.6%" y="-3.2%" width="103.1%" height="110%" filterUnits="objectBoundingBox" id="c"><feOffset dy="10" in="SourceAlpha" result="shadowOffsetOuter1"/><feGaussianBlur stdDeviation="7.5" in="shadowOffsetOuter1" result="shadowBlurOuter1"/><feColorMatrix values="0 0 0 0 0 0 0 0 0 0 0 0 0 0 0 0 0 0 0.04 0" in="shadowBlurOuter1"/></filter><path d="M24 0h1738v586H0V24C0 10.745 10.745 0 24 0Z" id="b"/><path d="M0 586V89.083h26c3.757 0 6.91-2.59 7.769-6.082L34 83V49c0-7.732 6.268-14 14-14h410c7.732 0 14 6.268 14 14v34h.231a8.004 8.004 0 0 0 7.508 6.08l.261.004h1282V586H0Z" id="d"/></defs><g fill="none" fill-rule="evenodd"><g opacity=".672" transform="translate(15 5)"><use fill="#000" filter="url(#a)" xlink:href="#b"/><use fill="#FFF" xlink:href="#b"/></g><g transform="translate(15 5)"><use fill="#000" filter="url(#c)" xlink:href="#d"/><use fill="#FFF" xlink:href="#d"/></g></g></svg>