<svg width="386" height="386" viewBox="0 0 386 386" fill="none" xmlns="http://www.w3.org/2000/svg">
  <rect width="386" height="386" fill="#FCE54F"/>
  <path d="M195.852 99.0679C149.218 97.2143 109.914 133.514 108.068 180.148C106.214 226.782 142.522 266.078 189.148 267.932C235.782 269.786 275.079 233.486 276.933 186.852C278.779 140.218 242.478 100.914 195.852 99.0679ZM231.519 222.858C230.469 224.712 228.422 225.639 226.429 225.361C225.819 225.276 225.209 225.075 224.637 224.751C213.469 218.394 201.297 214.255 188.461 212.447C175.625 210.64 162.781 211.266 150.292 214.301C147.581 214.957 144.855 213.297 144.198 210.586C143.542 207.875 145.202 205.149 147.913 204.492C161.645 201.156 175.764 200.468 189.867 202.453C203.97 204.438 217.346 208.987 229.634 215.977C232.052 217.359 232.901 220.433 231.527 222.858H231.519ZM242.625 200.677C240.903 203.859 236.918 205.048 233.736 203.326C220.668 196.259 206.518 191.617 191.682 189.532C176.845 187.447 161.97 188.01 147.457 191.2C146.67 191.37 145.889 191.401 145.133 191.293C142.499 190.922 140.244 188.96 139.641 186.203C138.861 182.666 141.101 179.167 144.638 178.387C160.68 174.858 177.123 174.232 193.512 176.534C209.893 178.835 225.533 183.963 239.976 191.779C243.166 193.502 244.348 197.479 242.625 200.669V200.677ZM254.936 175.668C253.314 178.789 249.939 180.403 246.649 179.94C245.761 179.816 244.888 179.538 244.046 179.105C228.831 171.189 212.442 165.96 195.335 163.558C178.227 161.156 161.027 161.666 144.221 165.08C139.85 165.968 135.594 163.141 134.706 158.777C133.818 154.406 136.645 150.15 141.008 149.262C159.622 145.485 178.652 144.922 197.582 147.579C216.512 150.235 234.647 156.028 251.499 164.794C255.454 166.848 256.991 171.722 254.936 175.676V175.668Z" fill="#121212"/>
</svg>
